HIERARCHY
ROOT Hips
{
	OFFSET 0.00000 0.00000 0.00000
	CHANNELS 6 Xposition Yposition Zposition Zrotation Yrotation Xrotation 
	JOINT LHipJoint
	{
		OFFSET 0 0 0
		CHANNELS 3 Zrotation Yrotation Xrotation
		JOINT LeftHip
		{
			OFFSET 1.80322 -1.53100 0.99595
			CHANNELS 3 Zrotation Yrotation Xrotation
			JOINT LeftKnee
			{
				OFFSET 2.25177 -6.18669 0.00000
				CHANNELS 3 Zrotation Yrotation Xrotation
				JOINT LeftAnkle
				{
					OFFSET 2.26601 -6.22582 0.00000
					CHANNELS 3 Zrotation Yrotation Xrotation
					JOINT LeftToe
					{
						OFFSET 0.23701 -0.65119 2.15848
						CHANNELS 3 Zrotation Yrotation Xrotation
						End Site
						{
							OFFSET 0.00000 -0.00000 1.12949
						}
					}
				}
			}
		}
	}
	JOINT RHipJoint
	{
		OFFSET 0 0 0
		CHANNELS 3 Zrotation Yrotation Xrotation
		JOINT RightHip
		{
			OFFSET -1.93977 -1.53100 0.99595
			CHANNELS 3 Zrotation Yrotation Xrotation
			JOINT RightKnee
			{
				OFFSET -2.28036 -6.26523 0.00000
				CHANNELS 3 Zrotation Yrotation Xrotation
				JOINT RightAnkle
				{
					OFFSET -2.25490 -6.19528 0.00000
					CHANNELS 3 Zrotation Yrotation Xrotation
					JOINT RightToe
					{
						OFFSET -0.28375 -0.77960 2.23137
						CHANNELS 3 Zrotation Yrotation Xrotation
						End Site
						{
							OFFSET -0.00000 -0.00000 1.17899
						}
					}
				}
			}
		}
	}
	JOINT lowerback
	{
		OFFSET 0 0 0
		CHANNELS 3 Zrotation Yrotation Xrotation
		JOINT Chest
		{
			OFFSET -0.00088 2.12090 -0.02806
			CHANNELS 3 Zrotation Yrotation Xrotation
			JOINT Chest2
			{
				OFFSET -0.00286 2.09666 0.12974
				CHANNELS 3 Zrotation Yrotation Xrotation
				JOINT lowerneck
				{
					OFFSET 0 0 0
					CHANNELS 3 Zrotation Yrotation Xrotation
					JOINT Neck
					{
						OFFSET 0.07328 1.83526 0.07290
						CHANNELS 3 Zrotation Yrotation Xrotation
						JOINT Head
						{
							OFFSET -0.06683 1.74974 -0.49542
							CHANNELS 3 Zrotation Yrotation Xrotation
							End Site
							{
								OFFSET -0.03398 1.85163 -0.17573
							}
						}
					}
				}
				JOINT LeftCollar
				{
					OFFSET 0 0 0
					CHANNELS 3 Zrotation Yrotation Xrotation
					JOINT LeftShoulder
					{
						OFFSET 3.02113 1.18018 0.40602
CHANNELS 3 Zrotation Xrotation Yrotation
						JOINT LeftElbow
						{
OFFSET 0 -4.585380 -0.000000
CHANNELS 3 Zrotation Xrotation Yrotation
							JOINT LeftWrist
							{
OFFSET 0 -2.689350 -0.000000
CHANNELS 3 Zrotation Xrotation Yrotation
								JOINT lhand
								{
									OFFSET 0 0 0
CHANNELS 3 Zrotation Xrotation Yrotation
									JOINT LFingers
									{
OFFSET 0 -0.585060 -0.000000
CHANNELS 3 Zrotation Xrotation Yrotation
										End Site
										{
OFFSET 0 -0.471690 -0.000000
										}
									}
								}
								JOINT LThumb
								{
OFFSET 0 0.000000 0.000000
CHANNELS 3 Zrotation Xrotation Yrotation
									End Site
									{
OFFSET 0 -0.478890 0.478890
									}
								}
							}
						}
					}
				}
				JOINT RightCollar
				{
					OFFSET 0 0 0
					CHANNELS 3 Zrotation Yrotation Xrotation
					JOINT RightShoulder
					{
						OFFSET -2.95074 1.18843 0.31430
CHANNELS 3 Zrotation Xrotation Yrotation
						JOINT RightElbow
						{
OFFSET 0 -4.474500 -0.000000
CHANNELS 3 Zrotation Xrotation Yrotation
							JOINT RightWrist
							{
OFFSET 0 -2.938960 -0.000000
CHANNELS 3 Zrotation Xrotation Yrotation
								JOINT rhand
								{
									OFFSET 0 0 0
CHANNELS 3 Zrotation Xrotation Yrotation
									JOINT RFingers
									{
OFFSET 0 -0.405090 -0.000000
CHANNELS 3 Zrotation Xrotation Yrotation
										End Site
										{
OFFSET 0 -0.326600 -0.000000
										}
									}
								}
								JOINT RThumb
								{
OFFSET 0 0.000000 0.000000
CHANNELS 3 Zrotation Xrotation Yrotation
									End Site
									{
OFFSET 0 -0.331580 0.331580
									}
								}
							}
						}
					}
				}
			}
		}
	}
}
MOTION
Frames: 8
Frame Time: 0.008333333333333333
13.279417 15.418285 -16.330193 -352.809770 4.565526 -345.487781 0.000000 0.000000 0.000000 -32.466074 7.443274 0.645633 0.162729 2.531774 6.980955 -0.355861 15.668945 -18.133603 0.969442 -6.265424 -17.557588 0.000000 0.000000 0.000000 22.550857 9.035553 -37.265200 -2.298436 -9.461846 27.251015 0.585241 -23.785191 -29.607244 -1.269433 -7.140506 20.132751 -3.584517 -4.018181 -7.317154 0.411522 -5.184093 -7.013463 2.165387 -2.451580 -2.835224 1.213324 -2.795704 -15.149551 0.956549 -5.511548 41.220402 -0.836029 -1.937776 17.846470 0.000000 0.000000 0.000000 22.608215 4.981717 -11.038806 27.102371 -38.275336 9.562971 10.536993 11.104445 -16.039311 0.000000 0.000000 0.000000 -7.125000 0.000000 0.000000 -16.051994 45.643997 0.261970 0.000000 0.000000 0.000000 -7.718941 16.334510 -0.686928 -13.152463 -21.510192 -2.508898 -12.015782 15.809685 5.199639 0.000000 0.000000 0.000000 7.125000 0.000000 0.000000 12.143224 35.080670 3.014568
13.297087 15.462161 -15.620697 -354.095225 -0.702656 -347.201730 0.000000 0.000000 0.000000 -29.390635 8.809512 -8.990735 2.787175 10.333421 30.072128 0.071236 10.319732 -15.752255 1.841128 -8.526333 -24.324873 0.000000 0.000000 0.000000 25.199621 8.962144 -32.143322 -2.094886 -9.060860 25.985960 0.413233 -20.259837 -25.286485 -1.197175 -6.942412 19.544808 -1.541199 -3.819233 -6.862186 0.875236 -5.025301 -7.046695 1.559910 -2.443105 -3.251277 1.861106 -2.019885 -14.822017 -0.549066 -3.971336 41.406809 -1.362576 -1.461737 17.786560 0.000000 0.000000 0.000000 17.262659 6.554084 -13.347637 31.053954 -41.779338 12.105936 9.555955 10.598442 -15.520914 0.000000 0.000000 0.000000 -7.125000 0.000000 0.000000 -16.757122 45.024956 0.010568 0.000000 0.000000 0.000000 -7.284730 16.350236 0.371714 -13.041191 -21.347627 -2.468271 -10.628775 16.534740 4.959830 0.000000 0.000000 0.000000 7.125000 0.000000 0.000000 13.229426 34.775418 3.396844
13.250867 15.520540 -14.983279 -356.199023 -6.890869 -348.160948 0.000000 0.000000 0.000000 -23.857117 4.731542 -17.284190 7.144541 15.447999 49.411205 -0.215196 9.456371 1.476900 0.583668 -4.889457 -13.594000 0.000000 0.000000 0.000000 28.948823 8.097610 -25.800509 -1.415171 -7.522720 21.273877 0.152066 -16.404237 -21.748976 -1.064369 -6.558866 18.415013 0.811400 -3.433705 -6.357596 1.410882 -4.601793 -6.978163 0.862482 -2.320221 -3.611917 3.056153 -1.146535 -14.447390 -1.634256 -2.647718 41.440846 -1.837594 -0.929368 17.682362 0.000000 0.000000 0.000000 12.183789 8.415267 -15.943676 33.543941 -43.743931 13.796798 6.349302 10.754237 -14.980410 0.000000 0.000000 0.000000 -7.125000 0.000000 0.000000 -19.404688 44.142541 -0.427846 0.000000 0.000000 0.000000 -7.134123 14.652578 3.943749 -13.476443 -21.981294 -2.629028 -10.063875 15.917368 4.612113 0.000000 0.000000 0.000000 7.125000 0.000000 0.000000 13.625041 34.405486 3.629183
13.169582 15.528385 -14.410241 -356.974165 -15.040964 -348.963107 0.000000 0.000000 0.000000 -20.105556 -0.500448 -23.841985 10.700309 17.784853 61.803905 0.072092 4.734616 5.421868 0.380031 -3.958660 -10.960484 0.000000 0.000000 0.000000 30.599274 8.424351 -20.540050 -1.131353 -6.755508 18.993075 -0.333740 -11.785345 -20.708734 -0.795903 -5.692042 15.894150 1.329316 -2.829375 -5.679270 1.377398 -3.820304 -6.684932 0.592860 -1.956165 -3.723170 4.517147 -0.099056 -14.065479 -2.399334 -1.285948 41.494079 -2.214847 -0.294164 17.649074 0.000000 0.000000 0.000000 8.481404 10.428111 -18.499903 33.298438 -43.558107 13.627287 4.316173 11.614485 -13.585355 0.000000 0.000000 0.000000 -7.125000 0.000000 0.000000 -20.682027 42.613576 -1.277545 0.000000 0.000000 0.000000 -7.024905 12.269112 11.150567 -15.356780 -24.640437 -3.373486 -10.530101 12.254883 4.136092 0.000000 0.000000 0.000000 7.125000 0.000000 0.000000 13.168340 33.955651 3.649372
13.070779 15.502859 -13.829389 -357.150359 -24.844768 -348.975334 0.000000 0.000000 0.000000 -18.041796 -5.515696 -29.158765 11.594403 18.213825 64.697164 -0.266474 9.116593 -3.472166 0.174940 -2.691297 -7.420651 0.000000 0.000000 0.000000 30.879907 9.374444 -17.343165 -1.166388 -6.855689 19.288521 -0.908280 -5.760734 -20.982366 -0.419061 -4.154770 11.512482 1.870116 -1.921956 -6.055538 0.766240 -2.670158 -6.562569 -0.330031 -1.424382 -3.438687 6.415752 1.340732 -13.422898 -3.148820 0.562328 41.401408 -2.575992 0.606726 17.560225 0.000000 0.000000 0.000000 6.153167 13.095493 -18.928587 30.930881 -41.677699 12.023965 3.274088 11.866053 -12.626538 0.000000 0.000000 0.000000 -7.125000 0.000000 0.000000 -21.245140 41.614813 -1.867850 0.000000 0.000000 0.000000 -6.435818 10.000897 19.377761 -18.414221 -28.683306 -4.746889 -10.440524 7.196343 4.413761 0.000000 0.000000 0.000000 7.125000 0.000000 0.000000 13.287332 34.226500 3.594231
12.927842 15.451300 -13.244929 -357.002726 -35.064862 -349.364351 0.000000 0.000000 0.000000 -16.767053 -9.904112 -31.979722 9.922691 17.365673 59.229027 -0.329952 13.524146 -14.531824 0.015103 -0.792815 -2.178891 0.000000 0.000000 0.000000 30.281404 11.529135 -14.056194 -1.341406 -7.333064 20.706034 -1.326101 -0.765727 -22.059676 -0.255369 -3.251165 8.978830 2.401186 -1.074746 -5.439698 0.040705 -1.575653 -6.471818 -1.331509 -0.924379 -3.702439 8.315834 2.959543 -12.893658 -4.110139 2.812972 40.702490 -2.944926 1.640198 17.280614 0.000000 0.000000 0.000000 4.746961 16.011539 -17.141117 27.876479 -39.001780 10.046016 1.936264 11.638636 -13.418723 0.000000 0.000000 0.000000 -7.125000 0.000000 0.000000 -22.648572 42.218722 -1.647470 0.000000 0.000000 0.000000 -6.067810 8.221760 27.547970 -22.036526 -33.017998 -6.605921 -10.644194 3.142878 4.904609 0.000000 0.000000 0.000000 7.125000 0.000000 0.000000 13.207361 34.721444 3.408705
12.692557 15.425107 -12.615687 -357.677967 -43.931840 -348.882848 0.000000 0.000000 0.000000 -14.843349 -13.967492 -33.506183 6.842676 15.195147 48.271914 -0.071369 14.780073 -20.202600 0.090879 -1.942452 -5.346586 0.000000 0.000000 0.000000 30.083923 14.363578 -9.573378 -1.245002 -7.074592 19.936697 -1.412585 2.814576 -21.728110 -0.233434 -3.109563 8.583944 3.577809 -0.562634 -5.366046 -0.314451 -0.945934 -6.251039 -2.346506 -0.666558 -3.519619 9.924590 4.581274 -12.476128 -5.140627 5.200424 39.595345 -3.244566 2.684748 16.917495 0.000000 0.000000 0.000000 3.720912 18.287303 -13.281532 23.560477 -34.694415 7.455601 2.125736 13.812715 -13.631308 0.000000 0.000000 0.000000 -7.125000 0.000000 0.000000 -22.564186 42.433952 -1.513226 0.000000 0.000000 0.000000 -5.886361 6.602846 33.679795 -24.638217 -35.831547 -8.077291 -11.594918 0.869233 5.124322 0.000000 0.000000 0.000000 7.125000 0.000000 0.000000 12.473328 34.985089 3.129469
12.333615 15.413890 -11.974904 -357.569369 -50.646664 -348.769467 0.000000 0.000000 0.000000 -13.752873 -16.926993 -34.376064 3.786128 11.869231 35.272304 0.408125 13.083727 -22.906106 0.108347 -2.121591 -5.841887 0.000000 0.000000 0.000000 29.335258 16.706019 -4.952948 -1.070397 -6.576992 18.468063 -1.293104 4.645969 -20.466951 -0.387589 -3.997909 11.070913 3.594917 -0.289985 -5.548489 -0.696076 -0.611549 -6.138844 -2.746970 -0.507703 -3.282795 11.162216 5.669803 -12.383193 -5.835713 6.715954 38.973724 -3.487132 3.371854 16.850606 0.000000 0.000000 0.000000 4.104321 19.562169 -9.432940 19.441964 -29.963932 5.249845 0.040089 17.589649 -13.303877 0.000000 0.000000 0.000000 -7.125000 0.000000 0.000000 -24.200977 41.924182 -1.964564 0.000000 0.000000 0.000000 -5.690433 6.135827 36.439596 -25.672797 -36.883791 -8.690520 -11.550341 -0.517008 5.114314 0.000000 0.000000 0.000000 7.125000 0.000000 0.000000 12.507927 34.972959 3.142281
